<svg xmlns="http://www.w3.org/2000/svg" viewBox="0 0 300 75">
  <defs>
    <style>.cls-1{fill:#ffc220;}.cls-2{fill:#0071ce;}</style>
  </defs>
  <path class="cls-1" d="M27.5,0L33.3,10.9L22.8,15.1L20.4,3.8L15.8,14.6L5,12.8L11.7,22.8L0,25.2L8.9,33.8L0,42.4L11.7,44.8L5,54.8L15.8,53L20.4,63.8L22.8,52.5L33.3,56.7L27.5,67.6L37.5,67.6L31.7,56.7L42.2,52.5L44.6,63.8L49.2,53L60,54.8L53.3,44.8L65,42.4L56.1,33.8L65,25.2L53.3,22.8L60,12.8L49.2,14.6L44.6,3.8L42.2,15.1L31.7,10.9L37.5,0z"/>
  <path class="cls-2" d="M95,18h7l8,35l8-35h7l8,35l8-35h7l-11,47h-8l-8-34l-8,34h-8z"/>
  <path class="cls-2" d="M167,18h7l-11,47h-8l-8-31l-8,31h-8l-11-47h7l8,35l8-35h8l8,35z"/>
  <path class="cls-2" d="M183,18h7v47h-7z"/>
  <path class="cls-2" d="M204,18h18v6h-11v13h10v6h-10v16h11v6h-18z"/>
  <path class="cls-2" d="M239,18h9l10,15l10-15h9l-14,22l15,25h-9l-11-18l-11,18h-9l15-25z"/>
  <path class="cls-2" d="M288,18h18v6h-11v13h10v6h-10v16h11v6h-18z"/>
</svg>
